<svg width="1444" height="901" viewBox="0 0 1444 901" fill="none" xmlns="http://www.w3.org/2000/svg">
<g clip-path="url(#clip0_1260_14809)">
<rect width="1444" height="901" fill="#311C87"/>
<path d="M732.057 407.118H712.472L684.147 483.353H701.87L706.483 470.437H733.271L728.415 456.18H710.773L722.265 423.388L742.659 483.353H760.382L732.057 407.118Z" fill="#EBE6FF"/>
<path d="M800.003 428.13C799.922 427.887 799.922 427.644 799.76 427.401C799.76 427.32 799.679 427.158 799.679 427.158C799.031 425.781 797.654 424.809 796.034 424.809C793.766 424.809 791.984 426.591 791.984 428.859C791.984 429.345 792.065 429.75 792.227 430.155V430.155C794.009 436.554 794.9 443.196 794.9 450C794.9 469.44 787.286 487.746 773.516 501.516C759.746 515.286 741.44 522.9 722 522.9C702.56 522.9 684.254 515.286 670.484 501.516C656.714 487.746 649.1 469.44 649.1 450C649.1 430.56 656.714 412.254 670.484 398.484C684.254 384.714 702.56 377.1 722 377.1C739.415 377.1 755.858 383.175 768.98 394.272C768.575 395.406 768.332 396.621 768.332 397.917C768.332 403.425 772.787 407.799 778.214 407.799C783.722 407.799 788.096 403.344 788.096 397.917C788.096 392.49 783.641 388.035 778.214 388.035C776.999 388.035 775.865 388.278 774.812 388.602C760.637 376.371 742.169 369 722 369C677.288 369 641 405.288 641 450C641 494.712 677.288 531 722 531C766.712 531 803 494.712 803 450C803 442.467 801.947 435.096 800.003 428.13Z" fill="#EBE6FF"/>
<path d="M617 450C617.552 450 618 450.448 618 451C618 451.552 617.552 452 617 452V450ZM6.10352e-05 452C-0.552246 452 -0.999939 451.552 -0.999939 451C-0.999939 450.448 -0.552246 450 6.10352e-05 450V452ZM617 452L6.10352e-05 452V450L617 450V452Z" fill="#EBE6FF"/>
<path d="M827 450C826.448 450 826 450.448 826 451C826 451.552 826.448 452 827 452V450ZM1444 452C1444.55 452 1445 451.552 1445 451C1445 450.448 1444.55 450 1444 450V452ZM827 452L1444 452V450L827 450V452Z" fill="#EBE6FF"/>
<path d="M128 194C128 187.373 133.373 182 140 182H332C338.627 182 344 187.373 344 194V284C344 290.627 338.627 296 332 296H140C133.373 296 128 290.627 128 284V194Z" fill="#FFA3E0"/>
<path d="M208.18 251L203.63 228.11H207.795L209.79 239.66C209.977 240.873 210.163 242.098 210.35 243.335C210.56 244.548 210.747 245.762 210.91 246.975H211.05C211.307 245.762 211.552 244.548 211.785 243.335C212.042 242.098 212.298 240.873 212.555 239.66L215.355 228.11H218.89L221.69 239.66C221.947 240.85 222.203 242.063 222.46 243.3C222.717 244.513 222.973 245.738 223.23 246.975H223.37C223.557 245.738 223.743 244.513 223.93 243.3C224.117 242.087 224.292 240.873 224.455 239.66L226.45 228.11H230.335L225.96 251H220.92L218.085 238.96C217.898 238.073 217.712 237.187 217.525 236.3C217.362 235.413 217.21 234.538 217.07 233.675H216.93C216.767 234.538 216.592 235.413 216.405 236.3C216.242 237.187 216.067 238.073 215.88 238.96L213.115 251H208.18ZM240.898 251.42C239.311 251.42 237.876 251.07 236.593 250.37C235.31 249.647 234.295 248.62 233.548 247.29C232.801 245.937 232.428 244.315 232.428 242.425C232.428 240.558 232.801 238.948 233.548 237.595C234.318 236.242 235.31 235.203 236.523 234.48C237.736 233.757 239.008 233.395 240.338 233.395C241.901 233.395 243.208 233.745 244.258 234.445C245.308 235.122 246.101 236.078 246.638 237.315C247.175 238.528 247.443 239.94 247.443 241.55C247.443 242.39 247.385 243.043 247.268 243.51H236.348C236.535 245.027 237.083 246.205 237.993 247.045C238.903 247.885 240.046 248.305 241.423 248.305C242.17 248.305 242.858 248.2 243.488 247.99C244.141 247.757 244.783 247.442 245.413 247.045L246.778 249.565C245.961 250.102 245.051 250.545 244.048 250.895C243.045 251.245 241.995 251.42 240.898 251.42ZM236.313 240.78H243.943C243.943 239.45 243.651 238.412 243.068 237.665C242.485 236.895 241.61 236.51 240.443 236.51C239.44 236.51 238.541 236.883 237.748 237.63C236.978 238.353 236.5 239.403 236.313 240.78ZM259.617 251.42C257.984 251.42 256.421 250.673 254.927 249.18H254.822L254.472 251H251.287V226.29H255.312V232.66L255.207 235.53C255.931 234.9 256.724 234.387 257.587 233.99C258.451 233.593 259.314 233.395 260.177 233.395C262.324 233.395 263.992 234.188 265.182 235.775C266.372 237.362 266.967 239.473 266.967 242.11C266.967 244.07 266.617 245.75 265.917 247.15C265.217 248.527 264.307 249.588 263.187 250.335C262.091 251.058 260.901 251.42 259.617 251.42ZM258.777 248.095C259.921 248.095 260.877 247.593 261.647 246.59C262.417 245.587 262.802 244.117 262.802 242.18C262.802 240.453 262.511 239.112 261.927 238.155C261.344 237.198 260.399 236.72 259.092 236.72C257.879 236.72 256.619 237.362 255.312 238.645V246.66C255.919 247.173 256.514 247.547 257.097 247.78C257.704 247.99 258.264 248.095 258.777 248.095Z" fill="#1B2240"/>
<path d="M128 625C128 618.373 133.373 613 140 613H332C338.627 613 344 618.373 344 625V715C344 721.627 338.627 727 332 727H140C133.373 727 128 721.627 128 715V625Z" fill="#8BF6F2"/>
<path d="M171.905 682V659.11H179.64C181.227 659.11 182.65 659.32 183.91 659.74C185.193 660.16 186.197 660.872 186.92 661.875C187.667 662.855 188.04 664.197 188.04 665.9C188.04 667.65 187.62 669.062 186.78 670.135C185.963 671.208 184.867 671.978 183.49 672.445L188.95 682H184.4L179.465 673.04H175.965V682H171.905ZM175.965 669.82H179.22C180.783 669.82 181.973 669.493 182.79 668.84C183.63 668.163 184.05 667.183 184.05 665.9C184.05 664.593 183.63 663.683 182.79 663.17C181.973 662.633 180.783 662.365 179.22 662.365H175.965V669.82ZM192.618 682V659.11H206.408V662.54H196.678V668.385H204.903V671.815H196.678V678.57H206.758V682H192.618ZM218.136 682.42C216.596 682.42 215.103 682.128 213.656 681.545C212.233 680.962 210.973 680.133 209.876 679.06L212.256 676.295C213.073 677.065 214.006 677.695 215.056 678.185C216.106 678.652 217.156 678.885 218.206 678.885C219.513 678.885 220.504 678.617 221.181 678.08C221.858 677.543 222.196 676.832 222.196 675.945C222.196 674.988 221.858 674.3 221.181 673.88C220.528 673.46 219.688 673.028 218.661 672.585L215.511 671.22C214.764 670.893 214.029 670.473 213.306 669.96C212.606 669.447 212.023 668.793 211.556 668C211.113 667.207 210.891 666.25 210.891 665.13C210.891 663.917 211.218 662.832 211.871 661.875C212.548 660.895 213.458 660.125 214.601 659.565C215.768 658.982 217.098 658.69 218.591 658.69C219.921 658.69 221.204 658.958 222.441 659.495C223.678 660.008 224.739 660.708 225.626 661.595L223.561 664.185C222.838 663.578 222.068 663.1 221.251 662.75C220.458 662.4 219.571 662.225 218.591 662.225C217.518 662.225 216.643 662.47 215.966 662.96C215.313 663.427 214.986 664.08 214.986 664.92C214.986 665.503 215.149 665.993 215.476 666.39C215.826 666.763 216.281 667.09 216.841 667.37C217.401 667.627 217.996 667.883 218.626 668.14L221.741 669.435C223.094 670.018 224.203 670.788 225.066 671.745C225.929 672.678 226.361 673.973 226.361 675.63C226.361 676.867 226.034 677.998 225.381 679.025C224.728 680.052 223.783 680.88 222.546 681.51C221.333 682.117 219.863 682.42 218.136 682.42ZM234.46 682V662.54H227.845V659.11H245.135V662.54H238.52V682H234.46ZM260.643 669.82L259.838 672.62H265.683L264.878 669.82C264.505 668.607 264.143 667.358 263.793 666.075C263.466 664.792 263.14 663.52 262.813 662.26H262.673C262.37 663.543 262.043 664.827 261.693 666.11C261.366 667.37 261.016 668.607 260.643 669.82ZM252.978 682L260.433 659.11H265.193L272.648 682H268.378L266.593 675.805H258.893L257.108 682H252.978ZM275.469 682V659.11H282.679C284.383 659.11 285.899 659.332 287.229 659.775C288.559 660.218 289.609 660.953 290.379 661.98C291.149 663.007 291.534 664.407 291.534 666.18C291.534 667.86 291.149 669.248 290.379 670.345C289.609 671.442 288.571 672.258 287.264 672.795C285.958 673.332 284.476 673.6 282.819 673.6H279.529V682H275.469ZM279.529 670.345H282.504C285.864 670.345 287.544 668.957 287.544 666.18C287.544 664.733 287.101 663.742 286.214 663.205C285.351 662.645 284.068 662.365 282.364 662.365H279.529V670.345ZM295.841 682V659.11H299.901V682H295.841Z" fill="#1B2240"/>
<path d="M615 753C615 746.373 620.373 741 627 741H819C825.627 741 831 746.373 831 753V843C831 849.627 825.627 855 819 855H627C620.373 855 615 849.627 615 843V753Z" fill="#8BF6F2"/>
<path d="M630.905 810V787.11H635.49L639.55 798.31C639.807 799.033 640.052 799.78 640.285 800.55C640.542 801.297 640.787 802.043 641.02 802.79H641.16C641.417 802.043 641.662 801.297 641.895 800.55C642.128 799.78 642.362 799.033 642.595 798.31L646.55 787.11H651.17V810H647.425V799.535C647.425 798.812 647.448 798.03 647.495 797.19C647.565 796.327 647.635 795.463 647.705 794.6C647.798 793.737 647.88 792.955 647.95 792.255H647.81L645.955 797.575L642.21 807.865H639.795L636.015 797.575L634.195 792.255H634.055C634.125 792.955 634.195 793.737 634.265 794.6C634.358 795.463 634.428 796.327 634.475 797.19C634.545 798.03 634.58 798.812 634.58 799.535V810H630.905ZM656.634 810V792.815H660.659V810H656.634ZM658.664 789.805C657.941 789.805 657.357 789.595 656.914 789.175C656.471 788.755 656.249 788.195 656.249 787.495C656.249 786.818 656.471 786.27 656.914 785.85C657.357 785.43 657.941 785.22 658.664 785.22C659.387 785.22 659.971 785.43 660.414 785.85C660.857 786.27 661.079 786.818 661.079 787.495C661.079 788.195 660.857 788.755 660.414 789.175C659.971 789.595 659.387 789.805 658.664 789.805ZM672.969 810.42C671.406 810.42 669.994 810.07 668.734 809.37C667.498 808.647 666.506 807.62 665.759 806.29C665.036 804.937 664.674 803.315 664.674 801.425C664.674 799.512 665.071 797.89 665.864 796.56C666.658 795.207 667.708 794.18 669.014 793.48C670.344 792.757 671.768 792.395 673.284 792.395C674.381 792.395 675.338 792.582 676.154 792.955C676.971 793.328 677.694 793.783 678.324 794.32L676.364 796.945C675.921 796.548 675.466 796.245 674.999 796.035C674.533 795.802 674.031 795.685 673.494 795.685C672.118 795.685 670.986 796.21 670.099 797.26C669.236 798.31 668.804 799.698 668.804 801.425C668.804 803.128 669.224 804.505 670.064 805.555C670.928 806.605 672.036 807.13 673.389 807.13C674.066 807.13 674.696 806.99 675.279 806.71C675.886 806.407 676.434 806.057 676.924 805.66L678.569 808.32C677.776 809.02 676.889 809.545 675.909 809.895C674.929 810.245 673.949 810.42 672.969 810.42ZM681.961 810V792.815H685.286L685.566 795.86H685.706C686.313 794.74 687.048 793.888 687.911 793.305C688.775 792.698 689.661 792.395 690.571 792.395C691.388 792.395 692.041 792.512 692.531 792.745L691.831 796.245C691.528 796.152 691.248 796.082 690.991 796.035C690.735 795.988 690.42 795.965 690.046 795.965C689.37 795.965 688.658 796.233 687.911 796.77C687.165 797.283 686.523 798.193 685.986 799.5V810H681.961ZM701.711 810.42C700.288 810.42 698.958 810.07 697.721 809.37C696.484 808.647 695.481 807.62 694.711 806.29C693.941 804.937 693.556 803.315 693.556 801.425C693.556 799.512 693.941 797.89 694.711 796.56C695.481 795.207 696.484 794.18 697.721 793.48C698.958 792.757 700.288 792.395 701.711 792.395C703.158 792.395 704.499 792.757 705.736 793.48C706.973 794.18 707.976 795.207 708.746 796.56C709.516 797.89 709.901 799.512 709.901 801.425C709.901 803.315 709.516 804.937 708.746 806.29C707.976 807.62 706.973 808.647 705.736 809.37C704.499 810.07 703.158 810.42 701.711 810.42ZM701.711 807.13C702.971 807.13 703.963 806.605 704.686 805.555C705.409 804.505 705.771 803.128 705.771 801.425C705.771 799.698 705.409 798.31 704.686 797.26C703.963 796.21 702.971 795.685 701.711 795.685C700.451 795.685 699.459 796.21 698.736 797.26C698.036 798.31 697.686 799.698 697.686 801.425C697.686 803.128 698.036 804.505 698.736 805.555C699.459 806.605 700.451 807.13 701.711 807.13ZM718.543 810.42C717.377 810.42 716.21 810.198 715.043 809.755C713.877 809.288 712.873 808.717 712.033 808.04L713.923 805.45C714.693 806.033 715.463 806.5 716.233 806.85C717.003 807.2 717.82 807.375 718.683 807.375C719.617 807.375 720.305 807.177 720.748 806.78C721.192 806.383 721.413 805.893 721.413 805.31C721.413 804.82 721.227 804.423 720.853 804.12C720.503 803.793 720.048 803.513 719.488 803.28C718.928 803.023 718.345 802.778 717.738 802.545C716.992 802.265 716.245 801.927 715.498 801.53C714.775 801.11 714.18 800.585 713.713 799.955C713.247 799.302 713.013 798.497 713.013 797.54C713.013 796.023 713.573 794.787 714.693 793.83C715.813 792.873 717.33 792.395 719.243 792.395C720.457 792.395 721.542 792.605 722.498 793.025C723.455 793.445 724.283 793.923 724.983 794.46L723.128 796.91C722.522 796.467 721.903 796.117 721.273 795.86C720.667 795.58 720.025 795.44 719.348 795.44C718.485 795.44 717.843 795.627 717.423 796C717.003 796.35 716.793 796.793 716.793 797.33C716.793 798.007 717.143 798.52 717.843 798.87C718.543 799.22 719.36 799.558 720.293 799.885C721.087 800.165 721.857 800.515 722.603 800.935C723.35 801.332 723.968 801.857 724.458 802.51C724.972 803.163 725.228 804.027 725.228 805.1C725.228 806.57 724.657 807.83 723.513 808.88C722.37 809.907 720.713 810.42 718.543 810.42ZM736.172 810.42C734.585 810.42 733.15 810.07 731.867 809.37C730.583 808.647 729.568 807.62 728.822 806.29C728.075 804.937 727.702 803.315 727.702 801.425C727.702 799.558 728.075 797.948 728.822 796.595C729.592 795.242 730.583 794.203 731.797 793.48C733.01 792.757 734.282 792.395 735.612 792.395C737.175 792.395 738.482 792.745 739.532 793.445C740.582 794.122 741.375 795.078 741.912 796.315C742.448 797.528 742.717 798.94 742.717 800.55C742.717 801.39 742.658 802.043 742.542 802.51H731.622C731.808 804.027 732.357 805.205 733.267 806.045C734.177 806.885 735.32 807.305 736.697 807.305C737.443 807.305 738.132 807.2 738.762 806.99C739.415 806.757 740.057 806.442 740.687 806.045L742.052 808.565C741.235 809.102 740.325 809.545 739.322 809.895C738.318 810.245 737.268 810.42 736.172 810.42ZM731.587 799.78H739.217C739.217 798.45 738.925 797.412 738.342 796.665C737.758 795.895 736.883 795.51 735.717 795.51C734.713 795.51 733.815 795.883 733.022 796.63C732.252 797.353 731.773 798.403 731.587 799.78ZM746.561 810V792.815H749.886L750.166 795.86H750.306C750.913 794.74 751.648 793.888 752.511 793.305C753.374 792.698 754.261 792.395 755.171 792.395C755.988 792.395 756.641 792.512 757.131 792.745L756.431 796.245C756.128 796.152 755.848 796.082 755.591 796.035C755.334 795.988 755.019 795.965 754.646 795.965C753.969 795.965 753.258 796.233 752.511 796.77C751.764 797.283 751.123 798.193 750.586 799.5V810H746.561ZM764.014 810L758.029 792.815H762.124L764.854 801.74C765.088 802.58 765.321 803.432 765.554 804.295C765.811 805.158 766.056 806.033 766.289 806.92H766.429C766.686 806.033 766.931 805.158 767.164 804.295C767.421 803.432 767.666 802.58 767.899 801.74L770.629 792.815H774.514L768.669 810H764.014ZM777.493 810V792.815H781.518V810H777.493ZM779.523 789.805C778.8 789.805 778.217 789.595 777.773 789.175C777.33 788.755 777.108 788.195 777.108 787.495C777.108 786.818 777.33 786.27 777.773 785.85C778.217 785.43 778.8 785.22 779.523 785.22C780.247 785.22 780.83 785.43 781.273 785.85C781.717 786.27 781.938 786.818 781.938 787.495C781.938 788.195 781.717 788.755 781.273 789.175C780.83 789.595 780.247 789.805 779.523 789.805ZM793.829 810.42C792.265 810.42 790.854 810.07 789.594 809.37C788.357 808.647 787.365 807.62 786.619 806.29C785.895 804.937 785.534 803.315 785.534 801.425C785.534 799.512 785.93 797.89 786.724 796.56C787.517 795.207 788.567 794.18 789.874 793.48C791.204 792.757 792.627 792.395 794.144 792.395C795.24 792.395 796.197 792.582 797.014 792.955C797.83 793.328 798.554 793.783 799.184 794.32L797.224 796.945C796.78 796.548 796.325 796.245 795.859 796.035C795.392 795.802 794.89 795.685 794.354 795.685C792.977 795.685 791.845 796.21 790.959 797.26C790.095 798.31 789.664 799.698 789.664 801.425C789.664 803.128 790.084 804.505 790.924 805.555C791.787 806.605 792.895 807.13 794.249 807.13C794.925 807.13 795.555 806.99 796.139 806.71C796.745 806.407 797.294 806.057 797.784 805.66L799.429 808.32C798.635 809.02 797.749 809.545 796.769 809.895C795.789 810.245 794.809 810.42 793.829 810.42ZM809.316 810.42C807.729 810.42 806.294 810.07 805.011 809.37C803.728 808.647 802.713 807.62 801.966 806.29C801.219 804.937 800.846 803.315 800.846 801.425C800.846 799.558 801.219 797.948 801.966 796.595C802.736 795.242 803.728 794.203 804.941 793.48C806.154 792.757 807.426 792.395 808.756 792.395C810.319 792.395 811.626 792.745 812.676 793.445C813.726 794.122 814.519 795.078 815.056 796.315C815.593 797.528 815.861 798.94 815.861 800.55C815.861 801.39 815.803 802.043 815.686 802.51H804.766C804.953 804.027 805.501 805.205 806.411 806.045C807.321 806.885 808.464 807.305 809.841 807.305C810.588 807.305 811.276 807.2 811.906 806.99C812.559 806.757 813.201 806.442 813.831 806.045L815.196 808.565C814.379 809.102 813.469 809.545 812.466 809.895C811.463 810.245 810.413 810.42 809.316 810.42ZM804.731 799.78H812.361C812.361 798.45 812.069 797.412 811.486 796.665C810.903 795.895 810.028 795.51 808.861 795.51C807.858 795.51 806.959 795.883 806.166 796.63C805.396 797.353 804.918 798.403 804.731 799.78Z" fill="#1B2240"/>
<path d="M1070 625C1070 618.373 1075.37 613 1082 613H1274C1280.63 613 1286 618.373 1286 625V715C1286 721.627 1280.63 727 1274 727H1082C1075.37 727 1070 721.627 1070 715V625Z" fill="#8BF6F2"/>
<path d="M1110.91 682V659.11H1117.03C1120.53 659.11 1123.26 660.055 1125.22 661.945C1127.18 663.835 1128.16 666.67 1128.16 670.45C1128.16 674.253 1127.19 677.135 1125.26 679.095C1123.32 681.032 1120.65 682 1117.24 682H1110.91ZM1114.97 678.71H1116.75C1119.06 678.71 1120.85 678.045 1122.11 676.715C1123.37 675.362 1124 673.273 1124 670.45C1124 667.65 1123.37 665.608 1122.11 664.325C1120.85 663.042 1119.06 662.4 1116.75 662.4H1114.97V678.71ZM1136.6 682.42C1135.1 682.42 1133.88 681.953 1132.92 681.02C1131.99 680.087 1131.52 678.873 1131.52 677.38C1131.52 675.537 1132.33 674.113 1133.94 673.11C1135.55 672.083 1138.11 671.383 1141.64 671.01C1141.61 670.1 1141.37 669.318 1140.9 668.665C1140.46 667.988 1139.65 667.65 1138.49 667.65C1137.65 667.65 1136.82 667.813 1136 668.14C1135.21 668.467 1134.43 668.863 1133.66 669.33L1132.18 666.635C1133.14 666.028 1134.22 665.503 1135.41 665.06C1136.62 664.617 1137.9 664.395 1139.26 664.395C1141.4 664.395 1143 665.037 1144.05 666.32C1145.12 667.58 1145.66 669.412 1145.66 671.815V682H1142.34L1142.06 680.11H1141.92C1141.15 680.763 1140.32 681.312 1139.43 681.755C1138.57 682.198 1137.62 682.42 1136.6 682.42ZM1137.89 679.27C1138.59 679.27 1139.22 679.107 1139.78 678.78C1140.36 678.43 1140.98 677.963 1141.64 677.38V673.53C1139.3 673.833 1137.68 674.288 1136.77 674.895C1135.86 675.478 1135.41 676.202 1135.41 677.065C1135.41 677.835 1135.64 678.395 1136.11 678.745C1136.57 679.095 1137.17 679.27 1137.89 679.27ZM1155.99 682.42C1154 682.42 1152.59 681.848 1151.75 680.705C1150.93 679.538 1150.53 678.033 1150.53 676.19V668H1148.08V664.99L1150.74 664.815L1151.23 660.125H1154.59V664.815H1158.96V668H1154.59V676.19C1154.59 678.197 1155.39 679.2 1157 679.2C1157.3 679.2 1157.62 679.165 1157.95 679.095C1158.27 679.002 1158.55 678.908 1158.79 678.815L1159.49 681.79C1159.02 681.953 1158.48 682.093 1157.88 682.21C1157.29 682.35 1156.66 682.42 1155.99 682.42ZM1165.99 682.42C1164.5 682.42 1163.27 681.953 1162.31 681.02C1161.38 680.087 1160.91 678.873 1160.91 677.38C1160.91 675.537 1161.72 674.113 1163.33 673.11C1164.94 672.083 1167.51 671.383 1171.03 671.01C1171.01 670.1 1170.76 669.318 1170.29 668.665C1169.85 667.988 1169.05 667.65 1167.88 667.65C1167.04 667.65 1166.21 667.813 1165.39 668.14C1164.6 668.467 1163.82 668.863 1163.05 669.33L1161.58 666.635C1162.54 666.028 1163.61 665.503 1164.8 665.06C1166.01 664.617 1167.3 664.395 1168.65 664.395C1170.8 664.395 1172.39 665.037 1173.44 666.32C1174.52 667.58 1175.05 669.412 1175.05 671.815V682H1171.73L1171.45 680.11H1171.31C1170.54 680.763 1169.71 681.312 1168.82 681.755C1167.96 682.198 1167.02 682.42 1165.99 682.42ZM1167.28 679.27C1167.98 679.27 1168.61 679.107 1169.17 678.78C1169.76 678.43 1170.38 677.963 1171.03 677.38V673.53C1168.7 673.833 1167.07 674.288 1166.16 674.895C1165.25 675.478 1164.8 676.202 1164.8 677.065C1164.8 677.835 1165.03 678.395 1165.5 678.745C1165.97 679.095 1166.56 679.27 1167.28 679.27ZM1188.2 682.42C1186.57 682.42 1185 681.673 1183.51 680.18H1183.41L1183.06 682H1179.87V657.29H1183.9V663.66L1183.79 666.53C1184.51 665.9 1185.31 665.387 1186.17 664.99C1187.03 664.593 1187.9 664.395 1188.76 664.395C1190.91 664.395 1192.58 665.188 1193.77 666.775C1194.96 668.362 1195.55 670.473 1195.55 673.11C1195.55 675.07 1195.2 676.75 1194.5 678.15C1193.8 679.527 1192.89 680.588 1191.77 681.335C1190.67 682.058 1189.48 682.42 1188.2 682.42ZM1187.36 679.095C1188.5 679.095 1189.46 678.593 1190.23 677.59C1191 676.587 1191.39 675.117 1191.39 673.18C1191.39 671.453 1191.09 670.112 1190.51 669.155C1189.93 668.198 1188.98 667.72 1187.68 667.72C1186.46 667.72 1185.2 668.362 1183.9 669.645V677.66C1184.5 678.173 1185.1 678.547 1185.68 678.78C1186.29 678.99 1186.85 679.095 1187.36 679.095ZM1203.35 682.42C1201.85 682.42 1200.63 681.953 1199.67 681.02C1198.74 680.087 1198.27 678.873 1198.27 677.38C1198.27 675.537 1199.08 674.113 1200.69 673.11C1202.3 672.083 1204.86 671.383 1208.39 671.01C1208.36 670.1 1208.12 669.318 1207.65 668.665C1207.21 667.988 1206.4 667.65 1205.24 667.65C1204.4 667.65 1203.57 667.813 1202.75 668.14C1201.96 668.467 1201.18 668.863 1200.41 669.33L1198.94 666.635C1199.89 666.028 1200.97 665.503 1202.16 665.06C1203.37 664.617 1204.65 664.395 1206.01 664.395C1208.15 664.395 1209.75 665.037 1210.8 666.32C1211.88 667.58 1212.41 669.412 1212.41 671.815V682H1209.09L1208.81 680.11H1208.67C1207.9 680.763 1207.07 681.312 1206.18 681.755C1205.32 682.198 1204.37 682.42 1203.35 682.42ZM1204.64 679.27C1205.34 679.27 1205.97 679.107 1206.53 678.78C1207.12 678.43 1207.73 677.963 1208.39 677.38V673.53C1206.05 673.833 1204.43 674.288 1203.52 674.895C1202.61 675.478 1202.16 676.202 1202.16 677.065C1202.16 677.835 1202.39 678.395 1202.86 678.745C1203.32 679.095 1203.92 679.27 1204.64 679.27ZM1222.02 682.42C1220.86 682.42 1219.69 682.198 1218.52 681.755C1217.36 681.288 1216.35 680.717 1215.51 680.04L1217.4 677.45C1218.17 678.033 1218.94 678.5 1219.71 678.85C1220.48 679.2 1221.3 679.375 1222.16 679.375C1223.1 679.375 1223.79 679.177 1224.23 678.78C1224.67 678.383 1224.89 677.893 1224.89 677.31C1224.89 676.82 1224.71 676.423 1224.33 676.12C1223.98 675.793 1223.53 675.513 1222.97 675.28C1222.41 675.023 1221.83 674.778 1221.22 674.545C1220.47 674.265 1219.73 673.927 1218.98 673.53C1218.26 673.11 1217.66 672.585 1217.19 671.955C1216.73 671.302 1216.49 670.497 1216.49 669.54C1216.49 668.023 1217.05 666.787 1218.17 665.83C1219.29 664.873 1220.81 664.395 1222.72 664.395C1223.94 664.395 1225.02 664.605 1225.98 665.025C1226.94 665.445 1227.76 665.923 1228.46 666.46L1226.61 668.91C1226 668.467 1225.38 668.117 1224.75 667.86C1224.15 667.58 1223.51 667.44 1222.83 667.44C1221.97 667.44 1221.32 667.627 1220.9 668C1220.48 668.35 1220.27 668.793 1220.27 669.33C1220.27 670.007 1220.62 670.52 1221.32 670.87C1222.02 671.22 1222.84 671.558 1223.77 671.885C1224.57 672.165 1225.34 672.515 1226.08 672.935C1226.83 673.332 1227.45 673.857 1227.94 674.51C1228.45 675.163 1228.71 676.027 1228.71 677.1C1228.71 678.57 1228.14 679.83 1226.99 680.88C1225.85 681.907 1224.19 682.42 1222.02 682.42ZM1239.65 682.42C1238.07 682.42 1236.63 682.07 1235.35 681.37C1234.06 680.647 1233.05 679.62 1232.3 678.29C1231.56 676.937 1231.18 675.315 1231.18 673.425C1231.18 671.558 1231.56 669.948 1232.3 668.595C1233.07 667.242 1234.06 666.203 1235.28 665.48C1236.49 664.757 1237.76 664.395 1239.09 664.395C1240.66 664.395 1241.96 664.745 1243.01 665.445C1244.06 666.122 1244.86 667.078 1245.39 668.315C1245.93 669.528 1246.2 670.94 1246.2 672.55C1246.2 673.39 1246.14 674.043 1246.02 674.51H1235.1C1235.29 676.027 1235.84 677.205 1236.75 678.045C1237.66 678.885 1238.8 679.305 1240.18 679.305C1240.92 679.305 1241.61 679.2 1242.24 678.99C1242.9 678.757 1243.54 678.442 1244.17 678.045L1245.53 680.565C1244.72 681.102 1243.81 681.545 1242.8 681.895C1241.8 682.245 1240.75 682.42 1239.65 682.42ZM1235.07 671.78H1242.7C1242.7 670.45 1242.41 669.412 1241.82 668.665C1241.24 667.895 1240.36 667.51 1239.2 667.51C1238.19 667.51 1237.3 667.883 1236.5 668.63C1235.73 669.353 1235.25 670.403 1235.07 671.78Z" fill="#1B2240"/>
<path d="M615 69C615 62.3726 620.373 57 627 57H819C825.627 57 831 62.3726 831 69V159C831 165.627 825.627 171 819 171H627C620.373 171 615 165.627 615 159V69Z" fill="#FFA3E0"/>
<path d="M699.555 126V108.815H703.58V126H699.555ZM701.585 105.805C700.862 105.805 700.278 105.595 699.835 105.175C699.392 104.755 699.17 104.195 699.17 103.495C699.17 102.818 699.392 102.27 699.835 101.85C700.278 101.43 700.862 101.22 701.585 101.22C702.308 101.22 702.892 101.43 703.335 101.85C703.778 102.27 704 102.818 704 103.495C704 104.195 703.778 104.755 703.335 105.175C702.892 105.595 702.308 105.805 701.585 105.805ZM717.955 126.42C715.972 126.42 714.222 125.942 712.705 124.985C711.188 124.005 709.998 122.628 709.135 120.855C708.295 119.058 707.875 116.923 707.875 114.45C707.875 111.977 708.295 109.865 709.135 108.115C709.998 106.365 711.188 105.023 712.705 104.09C714.222 103.157 715.972 102.69 717.955 102.69C719.962 102.69 721.723 103.157 723.24 104.09C724.757 105.023 725.935 106.365 726.775 108.115C727.638 109.865 728.07 111.977 728.07 114.45C728.07 116.923 727.638 119.058 726.775 120.855C725.935 122.628 724.757 124.005 723.24 124.985C721.723 125.942 719.962 126.42 717.955 126.42ZM717.955 122.885C719.752 122.885 721.187 122.127 722.26 120.61C723.333 119.07 723.87 117.017 723.87 114.45C723.87 111.883 723.333 109.877 722.26 108.43C721.187 106.96 719.752 106.225 717.955 106.225C716.158 106.225 714.723 106.96 713.65 108.43C712.577 109.877 712.04 111.883 712.04 114.45C712.04 117.017 712.577 119.07 713.65 120.61C714.723 122.127 716.158 122.885 717.955 122.885ZM739.334 126.42C737.794 126.42 736.301 126.128 734.854 125.545C733.431 124.962 732.171 124.133 731.074 123.06L733.454 120.295C734.271 121.065 735.204 121.695 736.254 122.185C737.304 122.652 738.354 122.885 739.404 122.885C740.711 122.885 741.702 122.617 742.379 122.08C743.056 121.543 743.394 120.832 743.394 119.945C743.394 118.988 743.056 118.3 742.379 117.88C741.726 117.46 740.886 117.028 739.859 116.585L736.709 115.22C735.962 114.893 735.227 114.473 734.504 113.96C733.804 113.447 733.221 112.793 732.754 112C732.311 111.207 732.089 110.25 732.089 109.13C732.089 107.917 732.416 106.832 733.069 105.875C733.746 104.895 734.656 104.125 735.799 103.565C736.966 102.982 738.296 102.69 739.789 102.69C741.119 102.69 742.402 102.958 743.639 103.495C744.876 104.008 745.937 104.708 746.824 105.595L744.759 108.185C744.036 107.578 743.266 107.1 742.449 106.75C741.656 106.4 740.769 106.225 739.789 106.225C738.716 106.225 737.841 106.47 737.164 106.96C736.511 107.427 736.184 108.08 736.184 108.92C736.184 109.503 736.347 109.993 736.674 110.39C737.024 110.763 737.479 111.09 738.039 111.37C738.599 111.627 739.194 111.883 739.824 112.14L742.939 113.435C744.292 114.018 745.401 114.788 746.264 115.745C747.127 116.678 747.559 117.973 747.559 119.63C747.559 120.867 747.232 121.998 746.579 123.025C745.926 124.052 744.981 124.88 743.744 125.51C742.531 126.117 741.061 126.42 739.334 126.42Z" fill="#1B2240"/>
<path d="M1070 198C1070 191.373 1075.37 186 1082 186H1277C1283.63 186 1289 191.373 1289 198V288C1289 294.627 1283.63 300 1277 300H1082C1075.37 300 1070 294.627 1070 288V198Z" fill="#FFA3E0"/>
<path d="M1127.1 242.82L1126.29 245.62H1132.14L1131.33 242.82C1130.96 241.607 1130.6 240.358 1130.25 239.075C1129.92 237.792 1129.59 236.52 1129.27 235.26H1129.13C1128.82 236.543 1128.5 237.827 1128.15 239.11C1127.82 240.37 1127.47 241.607 1127.1 242.82ZM1119.43 255L1126.89 232.11H1131.65L1139.1 255H1134.83L1133.05 248.805H1125.35L1123.56 255H1119.43ZM1141.57 255V237.815H1144.9L1145.18 240.125H1145.32C1146.09 239.378 1146.93 238.737 1147.84 238.2C1148.75 237.663 1149.78 237.395 1150.95 237.395C1152.79 237.395 1154.14 237.99 1154.98 239.18C1155.82 240.37 1156.24 242.05 1156.24 244.22V255H1152.21V244.745C1152.21 243.322 1152 242.318 1151.58 241.735C1151.16 241.152 1150.47 240.86 1149.52 240.86C1148.77 240.86 1148.1 241.047 1147.52 241.42C1146.96 241.77 1146.32 242.295 1145.6 242.995V255H1141.57ZM1167.18 255.42C1165.03 255.42 1163.31 254.627 1162.03 253.04C1160.75 251.453 1160.11 249.248 1160.11 246.425C1160.11 244.558 1160.44 242.948 1161.12 241.595C1161.82 240.242 1162.73 239.203 1163.85 238.48C1164.97 237.757 1166.15 237.395 1167.39 237.395C1168.37 237.395 1169.19 237.57 1169.87 237.92C1170.57 238.247 1171.25 238.702 1171.9 239.285L1171.76 236.52V230.29H1175.79V255H1172.46L1172.18 253.145H1172.04C1171.41 253.775 1170.68 254.312 1169.84 254.755C1169 255.198 1168.11 255.42 1167.18 255.42ZM1168.16 252.095C1169.44 252.095 1170.64 251.453 1171.76 250.17V242.155C1171.18 241.618 1170.59 241.245 1170.01 241.035C1169.43 240.825 1168.84 240.72 1168.26 240.72C1167.16 240.72 1166.22 241.222 1165.43 242.225C1164.66 243.205 1164.27 244.593 1164.27 246.39C1164.27 248.233 1164.61 249.645 1165.29 250.625C1165.96 251.605 1166.92 252.095 1168.16 252.095ZM1180.91 255V237.815H1184.24L1184.52 240.86H1184.66C1185.26 239.74 1186 238.888 1186.86 238.305C1187.73 237.698 1188.61 237.395 1189.52 237.395C1190.34 237.395 1190.99 237.512 1191.48 237.745L1190.78 241.245C1190.48 241.152 1190.2 241.082 1189.94 241.035C1189.69 240.988 1189.37 240.965 1189 240.965C1188.32 240.965 1187.61 241.233 1186.86 241.77C1186.12 242.283 1185.47 243.193 1184.94 244.5V255H1180.91ZM1200.66 255.42C1199.24 255.42 1197.91 255.07 1196.67 254.37C1195.44 253.647 1194.43 252.62 1193.66 251.29C1192.89 249.937 1192.51 248.315 1192.51 246.425C1192.51 244.512 1192.89 242.89 1193.66 241.56C1194.43 240.207 1195.44 239.18 1196.67 238.48C1197.91 237.757 1199.24 237.395 1200.66 237.395C1202.11 237.395 1203.45 237.757 1204.69 238.48C1205.92 239.18 1206.93 240.207 1207.7 241.56C1208.47 242.89 1208.85 244.512 1208.85 246.425C1208.85 248.315 1208.47 249.937 1207.7 251.29C1206.93 252.62 1205.92 253.647 1204.69 254.37C1203.45 255.07 1202.11 255.42 1200.66 255.42ZM1200.66 252.13C1201.92 252.13 1202.91 251.605 1203.64 250.555C1204.36 249.505 1204.72 248.128 1204.72 246.425C1204.72 244.698 1204.36 243.31 1203.64 242.26C1202.91 241.21 1201.92 240.685 1200.66 240.685C1199.4 240.685 1198.41 241.21 1197.69 242.26C1196.99 243.31 1196.64 244.698 1196.64 246.425C1196.64 248.128 1196.99 249.505 1197.69 250.555C1198.41 251.605 1199.4 252.13 1200.66 252.13ZM1212.84 255V237.815H1216.86V255H1212.84ZM1214.87 234.805C1214.14 234.805 1213.56 234.595 1213.12 234.175C1212.67 233.755 1212.45 233.195 1212.45 232.495C1212.45 231.818 1212.67 231.27 1213.12 230.85C1213.56 230.43 1214.14 230.22 1214.87 230.22C1215.59 230.22 1216.17 230.43 1216.62 230.85C1217.06 231.27 1217.28 231.818 1217.28 232.495C1217.28 233.195 1217.06 233.755 1216.62 234.175C1216.17 234.595 1215.59 234.805 1214.87 234.805ZM1228.02 255.42C1225.87 255.42 1224.15 254.627 1222.87 253.04C1221.59 251.453 1220.95 249.248 1220.95 246.425C1220.95 244.558 1221.28 242.948 1221.96 241.595C1222.66 240.242 1223.57 239.203 1224.69 238.48C1225.81 237.757 1226.99 237.395 1228.23 237.395C1229.21 237.395 1230.03 237.57 1230.71 237.92C1231.41 238.247 1232.09 238.702 1232.74 239.285L1232.6 236.52V230.29H1236.63V255H1233.3L1233.02 253.145H1232.88C1232.25 253.775 1231.52 254.312 1230.68 254.755C1229.84 255.198 1228.95 255.42 1228.02 255.42ZM1229 252.095C1230.28 252.095 1231.48 251.453 1232.6 250.17V242.155C1232.02 241.618 1231.43 241.245 1230.85 241.035C1230.27 240.825 1229.68 240.72 1229.1 240.72C1228 240.72 1227.06 241.222 1226.27 242.225C1225.5 243.205 1225.11 244.593 1225.11 246.39C1225.11 248.233 1225.45 249.645 1226.13 250.625C1226.8 251.605 1227.76 252.095 1229 252.095Z" fill="#1B2240"/>
<path fill-rule="evenodd" clip-rule="evenodd" d="M533.038 320.377C535.78 320.377 538.002 322.53 538.002 325.189C538.002 327.847 535.78 330 533.038 330C530.295 330 528.074 327.847 528.074 325.189C528.074 322.53 530.295 320.377 533.038 320.377Z" stroke="#FFA3E0" stroke-width="3" stroke-linecap="round" stroke-linejoin="round"/>
<path fill-rule="evenodd" clip-rule="evenodd" d="M533.038 264C535.78 264 538.002 266.153 538.002 268.811C538.002 271.47 535.78 273.623 533.038 273.623C530.295 273.623 528.074 271.47 528.074 268.811C528.074 266.153 530.295 264 533.038 264Z" stroke="#FFA3E0" stroke-width="3" stroke-linecap="round" stroke-linejoin="round"/>
<path fill-rule="evenodd" clip-rule="evenodd" d="M559.112 277.608C561.854 277.608 564.076 279.762 564.076 282.42C564.076 285.078 561.854 287.231 559.112 287.231C556.37 287.231 554.148 285.078 554.148 282.42C554.148 279.762 556.37 277.608 559.112 277.608Z" stroke="#FFA3E0" stroke-width="3" stroke-linecap="round" stroke-linejoin="round"/>
<path fill-rule="evenodd" clip-rule="evenodd" d="M506.964 277.608C509.706 277.608 511.928 279.762 511.928 282.42C511.928 285.078 509.706 287.231 506.964 287.231C504.222 287.231 502 285.078 502 282.42C502 279.762 504.222 277.608 506.964 277.608Z" stroke="#FFA3E0" stroke-width="3" stroke-linecap="round" stroke-linejoin="round"/>
<path fill-rule="evenodd" clip-rule="evenodd" d="M559.112 306.769C561.854 306.769 564.076 308.922 564.076 311.58C564.076 314.238 561.854 316.392 559.112 316.392C556.37 316.392 554.148 314.238 554.148 311.58C554.148 308.922 556.37 306.769 559.112 306.769Z" stroke="#FFA3E0" stroke-width="3" stroke-linecap="round" stroke-linejoin="round"/>
<path fill-rule="evenodd" clip-rule="evenodd" d="M506.964 306.769C509.706 306.769 511.928 308.922 511.928 311.58C511.928 314.238 509.706 316.392 506.964 316.392C504.222 316.392 502 314.238 502 311.58C502 308.922 504.222 306.769 506.964 306.769Z" stroke="#FFA3E0" stroke-width="3" stroke-linecap="round" stroke-linejoin="round"/>
<path d="M529.076 271.776L512.028 280.524" stroke="#FFA3E0" stroke-width="3" stroke-linecap="round" stroke-linejoin="round"/>
<path d="M537.099 271.776L554.147 280.524" stroke="#FFA3E0" stroke-width="3" stroke-linecap="round" stroke-linejoin="round"/>
<path d="M528.073 323.293C521.415 319.876 512.028 314.545 512.028 314.545" stroke="#FFA3E0" stroke-width="3" stroke-linecap="round" stroke-linejoin="round"/>
<path d="M538.102 323.293L554.147 314.545" stroke="#FFA3E0" stroke-width="3" stroke-linecap="round" stroke-linejoin="round"/>
<path d="M512.029 312.601H554.148" stroke="#FFA3E0" stroke-width="3" stroke-linecap="round" stroke-linejoin="round"/>
<path d="M507.014 287.328V306.769" stroke="#FFA3E0" stroke-width="3" stroke-linecap="round" stroke-linejoin="round"/>
<path d="M559.162 287.328V306.769" stroke="#FFA3E0" stroke-width="3" stroke-linecap="round" stroke-linejoin="round"/>
<path d="M535.094 273.72L556.154 307.741" stroke="#FFA3E0" stroke-width="3" stroke-linecap="round" stroke-linejoin="round"/>
<path d="M531.081 273.72L510.021 307.741" stroke="#FFA3E0" stroke-width="3" stroke-linecap="round" stroke-linejoin="round"/>
<path d="M722.5 323V365H725.5V323H722.5Z" fill="#FFA3E0"/>
<path fill-rule="evenodd" clip-rule="evenodd" d="M913.038 319.377C915.78 319.377 918.002 321.53 918.002 324.189C918.002 326.847 915.78 329 913.038 329C910.295 329 908.074 326.847 908.074 324.189C908.074 321.53 910.295 319.377 913.038 319.377Z" stroke="#FFA3E0" stroke-width="3" stroke-linecap="round" stroke-linejoin="round"/>
<path fill-rule="evenodd" clip-rule="evenodd" d="M913.038 263C915.78 263 918.002 265.153 918.002 267.811C918.002 270.47 915.78 272.623 913.038 272.623C910.295 272.623 908.074 270.47 908.074 267.811C908.074 265.153 910.295 263 913.038 263Z" stroke="#FFA3E0" stroke-width="3" stroke-linecap="round" stroke-linejoin="round"/>
<path fill-rule="evenodd" clip-rule="evenodd" d="M939.112 276.608C941.854 276.608 944.076 278.762 944.076 281.42C944.076 284.078 941.854 286.231 939.112 286.231C936.37 286.231 934.148 284.078 934.148 281.42C934.148 278.762 936.37 276.608 939.112 276.608Z" stroke="#FFA3E0" stroke-width="3" stroke-linecap="round" stroke-linejoin="round"/>
<path fill-rule="evenodd" clip-rule="evenodd" d="M886.964 276.608C889.706 276.608 891.928 278.762 891.928 281.42C891.928 284.078 889.706 286.231 886.964 286.231C884.222 286.231 882 284.078 882 281.42C882 278.762 884.222 276.608 886.964 276.608Z" stroke="#FFA3E0" stroke-width="3" stroke-linecap="round" stroke-linejoin="round"/>
<path fill-rule="evenodd" clip-rule="evenodd" d="M939.112 305.769C941.854 305.769 944.076 307.922 944.076 310.58C944.076 313.238 941.854 315.392 939.112 315.392C936.37 315.392 934.148 313.238 934.148 310.58C934.148 307.922 936.37 305.769 939.112 305.769Z" stroke="#FFA3E0" stroke-width="3" stroke-linecap="round" stroke-linejoin="round"/>
<path fill-rule="evenodd" clip-rule="evenodd" d="M886.964 305.769C889.706 305.769 891.928 307.922 891.928 310.58C891.928 313.238 889.706 315.392 886.964 315.392C884.222 315.392 882 313.238 882 310.58C882 307.922 884.222 305.769 886.964 305.769Z" stroke="#FFA3E0" stroke-width="3" stroke-linecap="round" stroke-linejoin="round"/>
<path d="M909.076 270.776L892.028 279.524" stroke="#FFA3E0" stroke-width="3" stroke-linecap="round" stroke-linejoin="round"/>
<path d="M917.099 270.776L934.147 279.524" stroke="#FFA3E0" stroke-width="3" stroke-linecap="round" stroke-linejoin="round"/>
<path d="M908.073 322.293C901.415 318.876 892.028 313.545 892.028 313.545" stroke="#FFA3E0" stroke-width="3" stroke-linecap="round" stroke-linejoin="round"/>
<path d="M918.102 322.293L934.147 313.545" stroke="#FFA3E0" stroke-width="3" stroke-linecap="round" stroke-linejoin="round"/>
<path d="M892.029 311.601H934.148" stroke="#FFA3E0" stroke-width="3" stroke-linecap="round" stroke-linejoin="round"/>
<path d="M887.014 286.328V305.769" stroke="#FFA3E0" stroke-width="3" stroke-linecap="round" stroke-linejoin="round"/>
<path d="M939.162 286.328V305.769" stroke="#FFA3E0" stroke-width="3" stroke-linecap="round" stroke-linejoin="round"/>
<path d="M915.094 272.72L936.154 306.741" stroke="#FFA3E0" stroke-width="3" stroke-linecap="round" stroke-linejoin="round"/>
<path d="M911.081 272.72L890.021 306.741" stroke="#FFA3E0" stroke-width="3" stroke-linecap="round" stroke-linejoin="round"/>
<path fill-rule="evenodd" clip-rule="evenodd" d="M724.038 306.377C726.78 306.377 729.002 308.53 729.002 311.189C729.002 313.847 726.78 316 724.038 316C721.295 316 719.074 313.847 719.074 311.189C719.074 308.53 721.295 306.377 724.038 306.377Z" stroke="#FFA3E0" stroke-width="3" stroke-linecap="round" stroke-linejoin="round"/>
<path fill-rule="evenodd" clip-rule="evenodd" d="M724.038 250C726.78 250 729.002 252.153 729.002 254.811C729.002 257.47 726.78 259.623 724.038 259.623C721.295 259.623 719.074 257.47 719.074 254.811C719.074 252.153 721.295 250 724.038 250Z" stroke="#FFA3E0" stroke-width="3" stroke-linecap="round" stroke-linejoin="round"/>
<path fill-rule="evenodd" clip-rule="evenodd" d="M750.112 263.608C752.854 263.608 755.076 265.762 755.076 268.42C755.076 271.078 752.854 273.231 750.112 273.231C747.37 273.231 745.148 271.078 745.148 268.42C745.148 265.762 747.37 263.608 750.112 263.608Z" stroke="#FFA3E0" stroke-width="3" stroke-linecap="round" stroke-linejoin="round"/>
<path fill-rule="evenodd" clip-rule="evenodd" d="M697.964 263.608C700.706 263.608 702.928 265.762 702.928 268.42C702.928 271.078 700.706 273.231 697.964 273.231C695.222 273.231 693 271.078 693 268.42C693 265.762 695.222 263.608 697.964 263.608Z" stroke="#FFA3E0" stroke-width="3" stroke-linecap="round" stroke-linejoin="round"/>
<path fill-rule="evenodd" clip-rule="evenodd" d="M750.112 292.769C752.854 292.769 755.076 294.922 755.076 297.58C755.076 300.238 752.854 302.392 750.112 302.392C747.37 302.392 745.148 300.238 745.148 297.58C745.148 294.922 747.37 292.769 750.112 292.769Z" stroke="#FFA3E0" stroke-width="3" stroke-linecap="round" stroke-linejoin="round"/>
<path fill-rule="evenodd" clip-rule="evenodd" d="M697.964 292.769C700.706 292.769 702.928 294.922 702.928 297.58C702.928 300.238 700.706 302.392 697.964 302.392C695.222 302.392 693 300.238 693 297.58C693 294.922 695.222 292.769 697.964 292.769Z" stroke="#FFA3E0" stroke-width="3" stroke-linecap="round" stroke-linejoin="round"/>
<path d="M720.076 257.776L703.028 266.524" stroke="#FFA3E0" stroke-width="3" stroke-linecap="round" stroke-linejoin="round"/>
<path d="M728.099 257.776L745.147 266.524" stroke="#FFA3E0" stroke-width="3" stroke-linecap="round" stroke-linejoin="round"/>
<path d="M719.073 309.293C712.415 305.876 703.028 300.545 703.028 300.545" stroke="#FFA3E0" stroke-width="3" stroke-linecap="round" stroke-linejoin="round"/>
<path d="M729.102 309.293L745.147 300.545" stroke="#FFA3E0" stroke-width="3" stroke-linecap="round" stroke-linejoin="round"/>
<path d="M703.029 298.601H745.148" stroke="#FFA3E0" stroke-width="3" stroke-linecap="round" stroke-linejoin="round"/>
<path d="M698.014 273.328V292.769" stroke="#FFA3E0" stroke-width="3" stroke-linecap="round" stroke-linejoin="round"/>
<path d="M750.162 273.328V292.769" stroke="#FFA3E0" stroke-width="3" stroke-linecap="round" stroke-linejoin="round"/>
<path d="M726.094 259.72L747.154 293.741" stroke="#FFA3E0" stroke-width="3" stroke-linecap="round" stroke-linejoin="round"/>
<path d="M722.081 259.72L701.021 293.741" stroke="#FFA3E0" stroke-width="3" stroke-linecap="round" stroke-linejoin="round"/>
<path d="M721.5 171V243H724.5V171H721.5Z" fill="#FFA3E0"/>
<path d="M1070 241.5H1025V244.5H1070V241.5ZM1007.5 259V280H1010.5V259H1007.5ZM993 294.5H948V297.5H993V294.5ZM1007.5 280C1007.5 288.008 1001.01 294.5 993 294.5V297.5C1002.66 297.5 1010.5 289.665 1010.5 280H1007.5ZM1025 241.5C1015.34 241.5 1007.5 249.335 1007.5 259H1010.5C1010.5 250.992 1016.99 244.5 1025 244.5V241.5Z" fill="#FFA3E0"/>
<path d="M876 292.5H854V295.5H876V292.5ZM836.5 310V391H839.5V310H836.5ZM822 405.5H802V408.5H822V405.5ZM836.5 391C836.5 399.008 830.008 405.5 822 405.5V408.5C831.665 408.5 839.5 400.665 839.5 391H836.5ZM854 292.5C844.335 292.5 836.5 300.335 836.5 310H839.5C839.5 301.992 845.992 295.5 854 295.5V292.5Z" fill="#FFA3E0"/>
<path d="M568 298.5H589V295.5H568V298.5ZM603.5 313V391H606.5V313H603.5ZM621 408.5H637V405.5H621V408.5ZM603.5 391C603.5 400.665 611.335 408.5 621 408.5V405.5C612.992 405.5 606.5 399.008 606.5 391H603.5ZM589 298.5C597.008 298.5 603.5 304.992 603.5 313H606.5C606.5 303.335 598.665 295.5 589 295.5V298.5Z" fill="#FFA3E0"/>
<path d="M344 240.5H404V237.5H344V240.5ZM418.5 255V281H421.5V255H418.5ZM436 298.5H496V295.5H436V298.5ZM418.5 281C418.5 290.665 426.335 298.5 436 298.5V295.5C427.992 295.5 421.5 289.008 421.5 281H418.5ZM404 240.5C412.008 240.5 418.5 246.992 418.5 255H421.5C421.5 245.335 413.665 237.5 404 237.5V240.5Z" fill="#FFA3E0"/>
<path d="M557.5 670C557.5 682.369 547.037 692.5 534 692.5C520.963 692.5 510.5 682.369 510.5 670C510.5 657.631 520.963 647.5 534 647.5C547.037 647.5 557.5 657.631 557.5 670Z" stroke="#41D9D3" stroke-width="3"/>
<path d="M746.5 670C746.5 682.369 736.037 692.5 723 692.5C709.963 692.5 699.5 682.369 699.5 670C699.5 657.631 709.963 647.5 723 647.5C736.037 647.5 746.5 657.631 746.5 670Z" stroke="#41D9D3" stroke-width="3"/>
<path d="M942.5 670C942.5 682.369 932.037 692.5 919 692.5C905.963 692.5 895.5 682.369 895.5 670C895.5 657.631 905.963 647.5 919 647.5C932.037 647.5 942.5 657.631 942.5 670Z" stroke="#41D9D3" stroke-width="3"/>
<path d="M344 671.5H509V668.5H344V671.5Z" fill="#41D9D3"/>
<path d="M535.5 646V604.5H532.5V646H535.5ZM550 590H677V587H550V590ZM694.5 572.5V535H691.5V572.5H694.5ZM677 590C686.665 590 694.5 582.165 694.5 572.5H691.5C691.5 580.508 685.008 587 677 587V590ZM535.5 604.5C535.5 596.492 541.992 590 550 590V587C540.335 587 532.5 594.835 532.5 604.5H535.5Z" fill="#41D9D3"/>
<path d="M1070 668.5H944V671.5H1070V668.5Z" fill="#41D9D3"/>
<path d="M919.5 646V604.5H916.5V646H919.5ZM902 587H766V590H902V587ZM751.5 572.5V535H748.5V572.5H751.5ZM766 587C757.992 587 751.5 580.508 751.5 572.5H748.5C748.5 582.165 756.335 590 766 590V587ZM919.5 604.5C919.5 594.835 911.665 587 902 587V590C910.008 590 916.5 596.492 916.5 604.5H919.5Z" fill="#41D9D3"/>
<path d="M721.5 535V646H724.5V535H721.5Z" fill="#41D9D3"/>
<path d="M724.5 741V694H721.5V741H724.5Z" fill="#41D9D3"/>
<path d="M52.15 539V506.3H62.6C64.8667 506.3 66.8667 506.55 68.6 507.05C70.3667 507.55 71.75 508.4 72.75 509.6C73.7833 510.767 74.3 512.35 74.3 514.35C74.3 515.883 73.9 517.333 73.1 518.7C72.3 520.033 71.1833 520.95 69.75 521.45V521.65C71.55 522.05 73.0333 522.9 74.2 524.2C75.4 525.467 76 527.2 76 529.4C76 531.567 75.45 533.367 74.35 534.8C73.2833 536.233 71.8 537.3 69.9 538C68 538.667 65.85 539 63.45 539H52.15ZM57.95 519.8H62.1C64.3667 519.8 66.0167 519.383 67.05 518.55C68.0833 517.717 68.6 516.6 68.6 515.2C68.6 513.6 68.0667 512.467 67 511.8C65.9333 511.133 64.3333 510.8 62.2 510.8H57.95V519.8ZM57.95 534.5H62.85C65.25 534.5 67.1 534.067 68.4 533.2C69.7 532.3 70.35 530.933 70.35 529.1C70.35 527.367 69.7167 526.117 68.45 525.35C67.1833 524.55 65.3167 524.15 62.85 524.15H57.95V534.5ZM87.434 539.6C85.3007 539.6 83.5507 538.933 82.184 537.6C80.8507 536.267 80.184 534.533 80.184 532.4C80.184 529.767 81.334 527.733 83.634 526.3C85.934 524.833 89.6007 523.833 94.634 523.3C94.6007 522 94.2507 520.883 93.584 519.95C92.9507 518.983 91.8007 518.5 90.134 518.5C88.934 518.5 87.7507 518.733 86.584 519.2C85.4507 519.667 84.334 520.233 83.234 520.9L81.134 517.05C82.5007 516.183 84.034 515.433 85.734 514.8C87.4673 514.167 89.3007 513.85 91.234 513.85C94.3007 513.85 96.584 514.767 98.084 516.6C99.6173 518.4 100.384 521.017 100.384 524.45V539H95.634L95.234 536.3H95.034C93.934 537.233 92.7507 538.017 91.484 538.65C90.2507 539.283 88.9007 539.6 87.434 539.6ZM89.284 535.1C90.284 535.1 91.184 534.867 91.984 534.4C92.8173 533.9 93.7007 533.233 94.634 532.4V526.9C91.3007 527.333 88.984 527.983 87.684 528.85C86.384 529.683 85.734 530.717 85.734 531.95C85.734 533.05 86.0673 533.85 86.734 534.35C87.4007 534.85 88.2507 535.1 89.284 535.1ZM117.515 539.6C115.282 539.6 113.265 539.1 111.465 538.1C109.699 537.067 108.282 535.6 107.215 533.7C106.182 531.767 105.665 529.45 105.665 526.75C105.665 524.017 106.232 521.7 107.365 519.8C108.499 517.867 109.999 516.4 111.865 515.4C113.765 514.367 115.799 513.85 117.965 513.85C119.532 513.85 120.899 514.117 122.065 514.65C123.232 515.183 124.265 515.833 125.165 516.6L122.365 520.35C121.732 519.783 121.082 519.35 120.415 519.05C119.749 518.717 119.032 518.55 118.265 518.55C116.299 518.55 114.682 519.3 113.415 520.8C112.182 522.3 111.565 524.283 111.565 526.75C111.565 529.183 112.165 531.15 113.365 532.65C114.599 534.15 116.182 534.9 118.115 534.9C119.082 534.9 119.982 534.7 120.815 534.3C121.682 533.867 122.465 533.367 123.165 532.8L125.515 536.6C124.382 537.6 123.115 538.35 121.715 538.85C120.315 539.35 118.915 539.6 117.515 539.6ZM130.361 539V503.7H136.011V525.75H136.161L145.261 514.45H151.561L143.161 524.45L152.411 539H146.161L139.861 528.35L136.011 532.75V539H130.361ZM165.812 539.6C163.545 539.6 161.495 539.1 159.662 538.1C157.829 537.067 156.379 535.6 155.312 533.7C154.245 531.767 153.712 529.45 153.712 526.75C153.712 524.083 154.245 521.783 155.312 519.85C156.412 517.917 157.829 516.433 159.562 515.4C161.295 514.367 163.112 513.85 165.012 513.85C167.245 513.85 169.112 514.35 170.612 515.35C172.112 516.317 173.245 517.683 174.012 519.45C174.779 521.183 175.162 523.2 175.162 525.5C175.162 526.7 175.079 527.633 174.912 528.3H159.312C159.579 530.467 160.362 532.15 161.662 533.35C162.962 534.55 164.595 535.15 166.562 535.15C167.629 535.15 168.612 535 169.512 534.7C170.445 534.367 171.362 533.917 172.262 533.35L174.212 536.95C173.045 537.717 171.745 538.35 170.312 538.85C168.879 539.35 167.379 539.6 165.812 539.6ZM159.262 524.4H170.162C170.162 522.5 169.745 521.017 168.912 519.95C168.079 518.85 166.829 518.3 165.162 518.3C163.729 518.3 162.445 518.833 161.312 519.9C160.212 520.933 159.529 522.433 159.262 524.4ZM180.654 539V514.45H185.404L185.804 517.75H186.004C187.104 516.683 188.304 515.767 189.604 515C190.904 514.233 192.387 513.85 194.054 513.85C196.687 513.85 198.604 514.7 199.804 516.4C201.004 518.1 201.604 520.5 201.604 523.6V539H195.854V524.35C195.854 522.317 195.554 520.883 194.954 520.05C194.354 519.217 193.371 518.8 192.004 518.8C190.937 518.8 189.987 519.067 189.154 519.6C188.354 520.1 187.437 520.85 186.404 521.85V539H180.654ZM217.232 539.6C214.166 539.6 211.716 538.467 209.882 536.2C208.049 533.933 207.132 530.783 207.132 526.75C207.132 524.083 207.616 521.783 208.582 519.85C209.582 517.917 210.882 516.433 212.482 515.4C214.082 514.367 215.766 513.85 217.532 513.85C218.932 513.85 220.116 514.1 221.082 514.6C222.082 515.067 223.049 515.717 223.982 516.55L223.782 512.6V503.7H229.532V539H224.782L224.382 536.35H224.182C223.282 537.25 222.232 538.017 221.032 538.65C219.832 539.283 218.566 539.6 217.232 539.6ZM218.632 534.85C220.466 534.85 222.182 533.933 223.782 532.1V520.65C222.949 519.883 222.116 519.35 221.282 519.05C220.449 518.75 219.616 518.6 218.782 518.6C217.216 518.6 215.866 519.317 214.732 520.75C213.632 522.15 213.082 524.133 213.082 526.7C213.082 529.333 213.566 531.35 214.532 532.75C215.499 534.15 216.866 534.85 218.632 534.85Z" fill="white"/>
<path d="M52.15 88V55.3H71.9V60.2H57.95V69.45H69.85V74.35H57.95V88H52.15ZM76.1617 88V63.45H80.9117L81.3117 67.8H81.5117C82.3784 66.2 83.4284 64.9833 84.6617 64.15C85.8951 63.2833 87.1617 62.85 88.4617 62.85C89.6284 62.85 90.5617 63.0167 91.2617 63.35L90.2617 68.35C89.8284 68.2167 89.4284 68.1167 89.0617 68.05C88.6951 67.9833 88.2451 67.95 87.7117 67.95C86.7451 67.95 85.7284 68.3333 84.6617 69.1C83.5951 69.8333 82.6784 71.1333 81.9117 73V88H76.1617ZM104.376 88.6C102.342 88.6 100.442 88.1 98.6758 87.1C96.9091 86.0667 95.4758 84.6 94.3758 82.7C93.2758 80.7667 92.7258 78.45 92.7258 75.75C92.7258 73.0167 93.2758 70.7 94.3758 68.8C95.4758 66.8667 96.9091 65.4 98.6758 64.4C100.442 63.3667 102.342 62.85 104.376 62.85C106.442 62.85 108.359 63.3667 110.126 64.4C111.892 65.4 113.326 66.8667 114.426 68.8C115.526 70.7 116.076 73.0167 116.076 75.75C116.076 78.45 115.526 80.7667 114.426 82.7C113.326 84.6 111.892 86.0667 110.126 87.1C108.359 88.1 106.442 88.6 104.376 88.6ZM104.376 83.9C106.176 83.9 107.592 83.15 108.626 81.65C109.659 80.15 110.176 78.1833 110.176 75.75C110.176 73.2833 109.659 71.3 108.626 69.8C107.592 68.3 106.176 67.55 104.376 67.55C102.576 67.55 101.159 68.3 100.126 69.8C99.1258 71.3 98.6258 73.2833 98.6258 75.75C98.6258 78.1833 99.1258 80.15 100.126 81.65C101.159 83.15 102.576 83.9 104.376 83.9ZM121.767 88V63.45H126.517L126.917 66.75H127.117C128.217 65.6833 129.417 64.7667 130.717 64C132.017 63.2333 133.501 62.85 135.167 62.85C137.801 62.85 139.717 63.7 140.917 65.4C142.117 67.1 142.717 69.5 142.717 72.6V88H136.967V73.35C136.967 71.3167 136.667 69.8833 136.067 69.05C135.467 68.2167 134.484 67.8 133.117 67.8C132.051 67.8 131.101 68.0667 130.267 68.6C129.467 69.1 128.551 69.85 127.517 70.85V88H121.767ZM158.396 88.6C155.562 88.6 153.546 87.7833 152.346 86.15C151.179 84.4833 150.596 82.3333 150.596 79.7V68H147.096V63.7L150.896 63.45L151.596 56.75H156.396V63.45H162.646V68H156.396V79.7C156.396 82.5667 157.546 84 159.846 84C160.279 84 160.729 83.95 161.196 83.85C161.662 83.7167 162.062 83.5833 162.396 83.45L163.396 87.7C162.729 87.9333 161.962 88.1333 161.096 88.3C160.262 88.5 159.362 88.6 158.396 88.6ZM177.531 88.6C175.264 88.6 173.214 88.1 171.381 87.1C169.548 86.0667 168.098 84.6 167.031 82.7C165.964 80.7667 165.431 78.45 165.431 75.75C165.431 73.0833 165.964 70.7833 167.031 68.85C168.131 66.9167 169.548 65.4333 171.281 64.4C173.014 63.3667 174.831 62.85 176.731 62.85C178.964 62.85 180.831 63.35 182.331 64.35C183.831 65.3167 184.964 66.6833 185.731 68.45C186.498 70.1833 186.881 72.2 186.881 74.5C186.881 75.7 186.798 76.6333 186.631 77.3H171.031C171.298 79.4667 172.081 81.15 173.381 82.35C174.681 83.55 176.314 84.15 178.281 84.15C179.348 84.15 180.331 84 181.231 83.7C182.164 83.3667 183.081 82.9167 183.981 82.35L185.931 85.95C184.764 86.7167 183.464 87.35 182.031 87.85C180.598 88.35 179.098 88.6 177.531 88.6ZM170.981 73.4H181.881C181.881 71.5 181.464 70.0167 180.631 68.95C179.798 67.85 178.548 67.3 176.881 67.3C175.448 67.3 174.164 67.8333 173.031 68.9C171.931 69.9333 171.248 71.4333 170.981 73.4ZM192.373 88V63.45H197.123L197.523 66.75H197.723C198.823 65.6833 200.023 64.7667 201.323 64C202.623 63.2333 204.106 62.85 205.773 62.85C208.406 62.85 210.323 63.7 211.523 65.4C212.723 67.1 213.323 69.5 213.323 72.6V88H207.573V73.35C207.573 71.3167 207.273 69.8833 206.673 69.05C206.073 68.2167 205.089 67.8 203.723 67.8C202.656 67.8 201.706 68.0667 200.873 68.6C200.073 69.1 199.156 69.85 198.123 70.85V88H192.373ZM228.951 88.6C225.885 88.6 223.435 87.4667 221.601 85.2C219.768 82.9333 218.851 79.7833 218.851 75.75C218.851 73.0833 219.335 70.7833 220.301 68.85C221.301 66.9167 222.601 65.4333 224.201 64.4C225.801 63.3667 227.485 62.85 229.251 62.85C230.651 62.85 231.835 63.1 232.801 63.6C233.801 64.0667 234.768 64.7167 235.701 65.55L235.501 61.6V52.7H241.251V88H236.501L236.101 85.35H235.901C235.001 86.25 233.951 87.0167 232.751 87.65C231.551 88.2833 230.285 88.6 228.951 88.6ZM230.351 83.85C232.185 83.85 233.901 82.9333 235.501 81.1V69.65C234.668 68.8833 233.835 68.35 233.001 68.05C232.168 67.75 231.335 67.6 230.501 67.6C228.935 67.6 227.585 68.3167 226.451 69.75C225.351 71.15 224.801 73.1333 224.801 75.7C224.801 78.3333 225.285 80.35 226.251 81.75C227.218 83.15 228.585 83.85 230.351 83.85Z" fill="white"/>
</g>
<defs>
<clipPath id="clip0_1260_14809">
<rect width="1444" height="901" fill="white"/>
</clipPath>
</defs>
</svg>
